<?xml version="1.0" standalone="no"?>
<!DOCTYPE svg PUBLIC "-//W3C//DTD SVG 20010904//EN"
 "http://www.w3.org/TR/2001/REC-SVG-20010904/DTD/svg10.dtd">
<svg version="1.0" xmlns="http://www.w3.org/2000/svg"
 width="157.000000pt" height="157.000000pt" viewBox="0 0 157.000000 157.000000"
 preserveAspectRatio="xMidYMid meet">
<metadata>
Created by potrace 1.11, written by Peter Selinger 2001-2013
</metadata>
<g transform="translate(0.000000,157.000000) scale(0.100000,-0.100000)"
fill="#000000" stroke="none">
<path d="M506 1449 c-239 -100 -398 -171 -438 -194 -15 -9 -14 -25 17 -200 18
-104 47 -264 64 -354 17 -90 31 -167 31 -172 0 -9 28 -36 270 -250 102 -90
202 -179 222 -198 40 -36 77 -64 79 -59 4 10 7 150 8 335 l1 212 243 169 c133
93 255 177 270 187 l28 18 -6 -39 c-3 -22 -12 -93 -21 -159 -8 -66 -17 -133
-19 -150 -2 -16 -9 -65 -15 -108 -7 -43 -9 -81 -6 -84 7 -8 125 89 131 107 3
13 68 344 81 420 10 56 64 317 70 336 5 18 0 24 -28 34 -18 6 -154 54 -303
105 -148 52 -304 107 -347 123 l-76 29 -256 -108z"/>
</g>
</svg>
